<?xml version="1.0" encoding="UTF-8"?><svg id="a" xmlns="http://www.w3.org/2000/svg" xmlns:xlink="http://www.w3.org/1999/xlink" viewBox="0 0 1500 478.4"><defs><style>.c{fill:url(#b);}.d{fill:#fff;}.e{fill:#2479bf;}.f{fill:#1f2020;}</style><linearGradient id="b" x1="383.74" y1="431.35" x2="651.49" y2="49.81" gradientTransform="translate(0 480.4) scale(1 -1)" gradientUnits="userSpaceOnUse"><stop offset="0" stop-color="#fbebb1"/><stop offset=".26" stop-color="#f58a8a"/><stop offset=".52" stop-color="#e390bd"/><stop offset=".76" stop-color="#6a60aa"/><stop offset="1" stop-color="#7fb8e4"/></linearGradient></defs><g><circle class="c" cx="517.18" cy="239.2" r="209.18"/><path class="f" d="M476.28,377.55c29.95-17.29,43.13-50.49,44.79-82.85,1.58-30.84-28.86-48.78-56.02-63.48-34.33-18.58-57.69-54.91-57.69-96.61,0-15.88,3.4-30.98,9.5-44.61,1.79-3.99-2.7-8.4-6.3-5.92-49.3,33.94-81.64,90.74-81.64,155.12,0,55.4,18.38-25.34,60.69,107.98,7.87,24.8,27.5,46.51,53.16,42.19,11.56-1.95,23.16-5.84,33.52-11.82Z"/><path class="f" d="M417.95,134.58c0,34.59,22.16,62.6,49.36,80.21,25.92,16.79,56.67-.6,82.98-16.77,33.26-20.44,76.4-22.51,112.51-1.66,13.75,7.94,25.12,18.43,33.89,30.53,2.56,3.54,8.62,1.86,8.28-2.5-4.74-59.67-37.76-116.07-93.52-148.26-47.97-27.7,12.75,28.59-123.86-1.43-25.41-5.58-54.03,.56-63.12,24.94-4.1,10.99-6.52,22.98-6.52,34.94Z"/><path class="f" d="M657.51,205.57c-29.95-17.29-65.29-12.11-94.14,2.64-27.5,14.06-27.81,49.38-26.97,80.25,1.07,39.02-18.71,77.42-54.82,98.27-13.75,7.94-28.53,12.54-43.39,14.08-4.35,.45-5.92,6.54-1.97,8.42,54.05,25.73,119.4,25.33,175.16-6.86,47.97-27.7-31.13-3.25,63.17-106.55,17.54-19.22,26.53-47.07,9.96-67.13-7.47-9.04-16.64-17.14-27-23.12Z"/></g><g><path class="e" d="M947.66,45h-151.55V440.89h395.89V45h-151.55c0,25.62-20.77,46.39-46.39,46.39s-46.39-20.77-46.39-46.39Z"/><path class="d" d="M951.29,226.1h3.13l81.2,179.11h-38.38l-8.35-20.1h-72.06l-8.35,20.1h-35.25l78.07-179.11Zm24.54,128.46l-12.8-30.81c-1.39-3.48-2.7-6.96-3.92-10.44-1.18-3.38-2.32-6.77-3.39-10.18-1.19-3.73-2.32-7.47-3.39-11.23-1.07,3.85-2.2,7.68-3.39,11.49-1.13,3.57-2.26,7.14-3.39,10.7-1.22,3.66-2.44,6.88-3.66,9.66l-12.79,30.81h46.74Zm122.64,53c-8.53,0-16.27-.96-23.24-2.87-6.96-1.92-13.23-4.53-18.8-7.83-5.57-3.31-10.44-7.22-14.62-11.75-4-4.7-7.31-9.66-9.92-14.88l29.76-17.23c4,6.44,8.7,11.75,14.1,15.93,5.57,4.18,12.88,6.27,21.93,6.27,7.66,0,13.66-1.65,18.02-4.96,4.53-3.48,6.79-7.83,6.79-13.06,0-6.26-2.35-10.96-7.05-14.1-4.7-3.13-11.23-6.53-19.58-10.18l-9.14-3.92c-6.61-2.79-12.62-5.83-18.01-9.14-5.4-3.31-10.01-7.14-13.84-11.49-3.83-4.35-6.79-9.31-8.88-14.88-2.09-5.57-3.13-12.1-3.13-19.58,0-6.79,1.22-13.14,3.66-19.06,2.61-5.92,6.18-11.05,10.7-15.4,4.7-4.35,10.36-7.74,16.97-10.18,6.61-2.44,14.01-3.65,22.19-3.65,11.66,0,21.67,2.26,30.03,6.79,8.53,4.35,15.84,11.84,21.93,22.45l-28.46,18.28c-3.13-5.57-6.53-9.57-10.18-12.01-3.66-2.44-8.09-3.66-13.32-3.66s-9.66,1.48-12.79,4.44c-3.13,2.96-4.7,6.7-4.7,11.23,0,5.57,1.74,9.84,5.22,12.79,3.66,2.78,9.4,5.92,17.23,9.4l9.14,3.92c7.83,3.31,14.71,6.79,20.63,10.44,6.09,3.48,11.14,7.48,15.14,12.01,4.18,4.35,7.31,9.4,9.4,15.14,2.26,5.57,3.39,12.18,3.39,19.84,0,8.18-1.57,15.49-4.7,21.93-2.9,6.2-7.19,11.64-12.53,15.93-5.4,4.35-11.84,7.66-19.32,9.92-7.31,2.09-15.32,3.13-24.02,3.13h0Z"/></g></svg>